<svg id="eMDk61Xt4ZI1" xmlns="http://www.w3.org/2000/svg" xmlns:xlink="http://www.w3.org/1999/xlink" viewBox="0 0 2048 1227" shape-rendering="geometricPrecision" text-rendering="geometricPrecision" project-id="b6f0ff6805cb46eaa3766328d18740f5" export-id="da576b809a654eb19e143f22fee5666e" cached="false"><g transform="matrix(2.22 0 0 2.22-1113.86-458.398089)"><path d="M0,0L31,1L57,4L77,9l25,10l12,7l11,9l9,10l8,16l4,13-1,3-7-1-18-7-15-3h-20L68,70l-9,4-12,6L33,91L21,103l-9,11-4,5-5,5-9,14-9,12-15,24-10,15-7,11-7,10-10,15-10,14-13,18-7,8-9,11-12,14-14,15-14,14-8,7-15,13-16,12-23,16-26,15-22,12-7,3h-3l2-5l9-11l9-12l13-20l9-15l14-26l9-16l13-26l9-27l4-19v-23l-4-14-7-14-8-10-11-9-12-7-21-8-25-7-32-5-30-2-49-1-61,2-54,3-60,5-43,4-43,3-37,3-50,3h-18l-3-1v-2l43-5l40-7l43-7l68-10l46-7l64-8l79-8l48-3h57l28,2l29,6l16,5l13,7l12,12l9,13l6,13l6,21l3,14v12l4-2l5-15l3-19v-12l-3-20-8-18-10-14-7-7-10-6-15-7-8-3-16-3v-2l31-19l23-11l19-8l24-8L-58,6l27-4L0,0Z" transform="translate(1260 300)" fill="#fcfbfb"/><path d="M0,0h61L91,1l33,3l24,4l19,5l20,8l16,9l9,7l7,7l7,11l5,15l2,15-1,15-5,20-10,29-13,32-4,8-1-3l4-18l3-14v-22l-3-14-5-12-9-12-9-10-16-11-16-9-16-7-16-6-24-6-37-7-33-5-67-6-44-2-83-2h-132v-2l14-1l25-1l34-3l39-3L-90,4l56-3L0,0Z" transform="translate(836 433)" fill="#c4ab5c"/><path d="M0,0h26L89,1l42,1l61,3l57,2l49,4l31,4l27,5l31,7l24,7l21,10l16,10l15,14l7,10l5,12l3,13v24l-4,16-8,22-10,21-8,13-7,11-2,4h-2l4-20l5-27-1-24-4-17-5-13-6-11-8-10-13-13-14-10-24-13-20-8-32-10-30-7-58-11-31-4-68-6L81,7L35,5L-1,3L-5,1L0,0Z" transform="translate(543 468)" fill="#c4ab5b"/><path d="M0,0h9l6,1v1L7,3L3,5L-1,4h-3L-8,8v-3l4-4L0,0Z" transform="translate(1263 330)" fill="#241d19"/><path d="M0,0h8L20,3l1,2L2,11l-9,4h-7l-1-1l1-7l5-5L0,0Z" transform="translate(1268 329)" fill="#2e2c2f"/><path d="M0,0h9l6,1v1L7,3L3,5L-1,4h-3v3l7,3v2l-5,2h-7l-1-1l1-7l5-5L0,0Z" transform="translate(1263 330)" fill="#231b17"/></g></svg>
